:SAMPLES-PER-SECOND 30
:FRAME-RANGE 1-2009
:FULLY-SPECIFIED
:DEGREES
628
root  -6.65536 38.8729 -139.902 -178.552 -7.85965 179.358
RightUpLeg  -18.5756 -4.63893 4.09966
RightLeg  13.3346 -28.1758 -2.04109
RightFoot  -0.601584 0.679973 -7.26106
RightToes  2.96424e-010 1.2921e-014 -6.02303e-014
Spine  -7.31493 0.298319 6.80057
Spine1  9.37324 0.791058 -3.42119
HEad  28.9026 18.0861 -3.51135
LeftShoulder1  0.497192 1.28202 -18.2211
LeftArm  -12.2616 16.8364 -39.1936
LeftForeArm  -41.5801 5.9966 -7.64838
LeftHand  0.413446 9.70945 11.9
RightShoulder  1.57576 1.11228 29.7305
RightArm  -27.5504 -8.0234 44.4402
RightForeArm  64.6163 -5.38783 2.79829
RightHand  0.00911707 -5.51178 -19.2719
LeftUpLeg  0.930783 -0.533251 -5.39732
LeftLeg  24.7987 -0.638714 0.0138141
LeftFoot  -14.8861 0.0688623 -0.660098
LeftToes  -1.2485e-010 1.20979e-011 -1.0929e-011
629
root  -6.59446 38.86 -140.761 -178.812 -5.80365 179.694
RightUpLeg  -17.7387 -4.56826 5.12874
RightLeg  14.8096 -26.2905 -2.50511
RightFoot  -1.84328 0.614548 -7.5299
RightToes  2.96424e-010 1.2921e-014 -6.02303e-014
Spine  -7.7743 0.756422 8.49661
Spine1  10.2286 1.31167 -3.52656
HEad  29.3859 18.2938 -3.31685
LeftShoulder1  0.379176 1.7762 -18.4643
LeftArm  -13.3526 17.9498 -40.5116
LeftForeArm  -40.2569 5.96925 -7.17881
LeftHand  0.312255 9.27748 10.2687
RightShoulder  1.70716 1.5632 29.1277
RightArm  -28.425 -6.40692 45.6334
RightForeArm  66.0232 -5.24468 2.25259
RightHand  0.0351839 -5.67505 -19.0275
LeftUpLeg  -1.46553 3.12205 -3.57489
LeftLeg  32.0882 -3.85422 -2.25376
LeftFoot  -11.9243 0.0471815 -4.76578
LeftToes  -1.2485e-010 1.20979e-011 -1.0929e-011
630
root  -6.46832 38.7966 -141.49 -178.779 -4.28915 179.78
RightUpLeg  -17.4399 -4.5297 5.76841
RightLeg  16.471 -24.9797 -2.87313
RightFoot  -3.16732 0.561732 -8.13998
RightToes  2.96424e-010 1.2921e-014 -6.02303e-014
Spine  -7.43059 0.948232 9.61643
Spine1  9.96064 1.61653 -3.57415
HEad  29.8424 17.9376 -2.50008
LeftShoulder1  0.383269 1.76593 -18.5727
LeftArm  -13.9423 18.6747 -41.1714
LeftForeArm  -37.3614 6.05145 -7.02047
LeftHand  0.235093 8.9746 8.7039
RightShoulder  1.84295 2.03587 28.5665
RightArm  -28.3035 -4.9744 46.967
RightForeArm  66.3961 -5.23618 2.28416
RightHand  -7.92499e-005 -5.45673 -19.1972
LeftUpLeg  -5.33358 5.21139 -1.68879
LeftLeg  40.6854 -6.79379 -5.84932
LeftFoot  -7.00127 0.442071 -10.5393
LeftToes  -1.2485e-010 1.20979e-011 -1.0929e-011
631
root  -6.33528 38.6833 -142.15 -179.085 -2.89479 -179.8
RightUpLeg  -16.9313 -4.74833 6.766
RightLeg  18.2808 -23.3865 -3.35328
RightFoot  -4.87237 0.43147 -8.19581
RightToes  2.96424e-010 1.2921e-014 -6.02303e-014
Spine  -6.45334 0.969566 10.9235
Spine1  9.51148 1.77861 -3.60867
HEad  29.7678 17.4042 -1.94223
LeftShoulder1  0.401085 1.72302 -19.0582
LeftArm  -13.9293 18.4087 -41.1709
LeftForeArm  -31.9248 6.27815 -7.22714
LeftHand  0.135492 7.80367 7.98571
RightShoulder  1.88707 2.20812 28.2853
RightArm  -26.7733 -3.69888 47.9428
RightForeArm  65.866 -5.39282 3.10101
RightHand  -0.0115581 -5.3868 -19.2039
LeftUpLeg  -9.64835 5.566 0.360185
LeftLeg  49.4477 -7.79279 -9.23208
LeftFoot  -1.69385 1.2634 -14.7843
LeftToes  -1.2485e-010 1.20979e-011 -1.0929e-011
632
root  -6.22674 38.5218 -142.767 -179.398 -1.14133 -179.34
RightUpLeg  -16.4111 -5.48731 7.86597
RightLeg  19.7042 -21.5899 -3.43338
RightFoot  -6.72114 0.298635 -8.50359
RightToes  2.96424e-010 1.2921e-014 -6.02303e-014
Spine  -5.90354 0.930914 11.8681
Spine1  10.2349 1.77377 -3.11141
HEad  29.1516 17.2476 -2.02113
LeftShoulder1  0.257198 2.33226 -20.2336
LeftArm  -14.2161 17.1879 -40.8699
LeftForeArm  -24.8716 6.50294 -7.23191
LeftHand  0.0715377 6.80762 8.03189
RightShoulder  1.91796 2.40877 27.6067
RightArm  -24.6526 -1.56618 49.1045
RightForeArm  65.0006 -5.59892 4.14808
RightHand  -0.00974302 -5.39633 -19.4457
LeftUpLeg  -13.6466 4.73095 1.81325
LeftLeg  56.2117 -5.91891 -8.95384
LeftFoot  -0.833222 1.26825 -13.6859
LeftToes  -1.2485e-010 1.20979e-011 -1.0929e-011
633
root  -6.09036 38.5103 -143.396 -179.742 1.0619 -179.498
RightUpLeg  -15.2955 -5.31265 8.30633
RightLeg  20.4108 -19.7226 -3.56877
RightFoot  -7.93437 0.196235 -8.37537
RightToes  2.96424e-010 1.2921e-014 -6.02303e-014
Spine  -5.5501 1.06234 11.9593
Spine1  10.367 1.96043 -2.91038
HEad  29.3925 17.0936 -1.72986
LeftShoulder1  0.388916 1.86289 -20.7911
LeftArm  -15.101 17.6112 -41.0137
LeftForeArm  -17.4933 6.64246 -6.86575
LeftHand  -0.0221911 5.3693 7.92812
RightShoulder  2.02989 2.71369 27.7807
RightArm  -22.7496 0.384254 49.6213
RightForeArm  64.8817 -5.70725 5.02776
RightHand  -0.0433181 -5.19634 -19.8232
LeftUpLeg  -16.637 2.63727 2.24643
LeftLeg  59.3185 -2.38757 -3.80515
LeftFoot  -2.69655 0.772296 -9.98634
LeftToes  -1.2485e-010 1.20979e-011 -1.0929e-011
634
root  -5.95166 38.5315 -143.961 -179.778 3.97518 -179.981
RightUpLeg  -14.3652 -5.05972 8.38152
RightLeg  20.6052 -17.1511 -3.22417
RightFoot  -8.77458 0.130301 -8.43448
RightToes  2.96424e-010 1.2921e-014 -6.02303e-014
Spine  -4.99414 1.33704 11.9262
Spine1  10.0109 2.35815 -3.1905
HEad  30.1298 16.7924 -1.50551
LeftShoulder1  0.33189 2.08841 -21.126
LeftArm  -14.0925 18.2471 -41.356
LeftForeArm  -17.026 6.69008 -7.08349
LeftHand  -0.0511824 4.90888 7.76509
RightShoulder  2.13732 3.0474 27.7062
RightArm  -21.1957 1.65295 50.6234
RightForeArm  65.4796 -3.41916 6.07393
RightHand  0.0191165 -5.57187 -19.3056
LeftUpLeg  -18.9199 -0.0825899 2.48852
LeftLeg  59.1749 0.555626 1.55596
LeftFoot  -4.33504 0.471117 -7.26559
LeftToes  -1.2485e-010 1.20979e-011 -1.0929e-011
